<mxfile host="app.diagrams.net" modified="2023-12-05T01:37:42.406Z" agent="Mozilla/5.0 (Windows NT 10.0; Win64; x64) AppleWebKit/537.36 (KHTML, like Gecko) Chrome/119.0.0.0 Safari/537.36" etag="ROpsUkXbo0X9Le2JFPSi" version="22.1.5" type="google">
  <diagram name="Page-1" id="13e1069c-82ec-6db2-03f1-153e76fe0fe0">
    <mxGraphModel grid="1" page="1" gridSize="10" guides="1" tooltips="1" connect="1" arrows="1" fold="1" pageScale="1" pageWidth="1100" pageHeight="850" background="none" math="0" shadow="0">
      <root>
        <mxCell id="0" />
        <mxCell id="1" parent="0" />
        <mxCell id="uYPOjE27LP6-1Nn6hJa9-1" value="Borrower" style="shape=umlLifeline;perimeter=lifelinePerimeter;whiteSpace=wrap;html=1;container=1;dropTarget=0;collapsible=0;recursiveResize=0;outlineConnect=0;portConstraint=eastwest;newEdgeStyle={&quot;curved&quot;:0,&quot;rounded&quot;:0};participant=umlActor;" vertex="1" parent="1">
          <mxGeometry x="30" y="70" width="20" height="410" as="geometry" />
        </mxCell>
        <mxCell id="uYPOjE27LP6-1Nn6hJa9-6" value="" style="html=1;points=[[0,0,0,0,5],[0,1,0,0,-5],[1,0,0,0,5],[1,1,0,0,-5]];perimeter=orthogonalPerimeter;outlineConnect=0;targetShapes=umlLifeline;portConstraint=eastwest;newEdgeStyle={&quot;curved&quot;:0,&quot;rounded&quot;:0};" vertex="1" parent="uYPOjE27LP6-1Nn6hJa9-1">
          <mxGeometry x="5" y="70" width="10" height="290" as="geometry" />
        </mxCell>
        <mxCell id="uYPOjE27LP6-1Nn6hJa9-3" value="Librarian&lt;br&gt;" style="shape=umlLifeline;perimeter=lifelinePerimeter;whiteSpace=wrap;html=1;container=1;dropTarget=0;collapsible=0;recursiveResize=0;outlineConnect=0;portConstraint=eastwest;newEdgeStyle={&quot;curved&quot;:0,&quot;rounded&quot;:0};participant=umlActor;" vertex="1" parent="1">
          <mxGeometry x="280" y="70" width="20" height="410" as="geometry" />
        </mxCell>
        <mxCell id="uYPOjE27LP6-1Nn6hJa9-19" value="" style="html=1;points=[[0,0,0,0,5],[0,1,0,0,-5],[1,0,0,0,5],[1,1,0,0,-5]];perimeter=orthogonalPerimeter;outlineConnect=0;targetShapes=umlLifeline;portConstraint=eastwest;newEdgeStyle={&quot;curved&quot;:0,&quot;rounded&quot;:0};" vertex="1" parent="uYPOjE27LP6-1Nn6hJa9-3">
          <mxGeometry x="5" y="100" width="10" height="260" as="geometry" />
        </mxCell>
        <mxCell id="uYPOjE27LP6-1Nn6hJa9-4" value="&lt;u&gt;app:Library&lt;br&gt;Application&lt;/u&gt;" style="shape=umlLifeline;perimeter=lifelinePerimeter;whiteSpace=wrap;html=1;container=1;dropTarget=0;collapsible=0;recursiveResize=0;outlineConnect=0;portConstraint=eastwest;newEdgeStyle={&quot;curved&quot;:0,&quot;rounded&quot;:0};" vertex="1" parent="1">
          <mxGeometry x="490" y="70" width="100" height="410" as="geometry" />
        </mxCell>
        <mxCell id="uYPOjE27LP6-1Nn6hJa9-22" value="" style="html=1;points=[[0,0,0,0,5],[0,1,0,0,-5],[1,0,0,0,5],[1,1,0,0,-5]];perimeter=orthogonalPerimeter;outlineConnect=0;targetShapes=umlLifeline;portConstraint=eastwest;newEdgeStyle={&quot;curved&quot;:0,&quot;rounded&quot;:0};" vertex="1" parent="uYPOjE27LP6-1Nn6hJa9-4">
          <mxGeometry x="45" y="112" width="10" height="228" as="geometry" />
        </mxCell>
        <mxCell id="uYPOjE27LP6-1Nn6hJa9-5" value="&lt;u&gt;oc:{Order}&lt;/u&gt;" style="shape=umlLifeline;perimeter=lifelinePerimeter;whiteSpace=wrap;html=1;container=1;dropTarget=0;collapsible=0;recursiveResize=0;outlineConnect=0;portConstraint=eastwest;newEdgeStyle={&quot;curved&quot;:0,&quot;rounded&quot;:0};" vertex="1" parent="1">
          <mxGeometry x="680" y="70" width="100" height="410" as="geometry" />
        </mxCell>
        <mxCell id="uYPOjE27LP6-1Nn6hJa9-30" value="" style="html=1;points=[[0,0,0,0,5],[0,1,0,0,-5],[1,0,0,0,5],[1,1,0,0,-5]];perimeter=orthogonalPerimeter;outlineConnect=0;targetShapes=umlLifeline;portConstraint=eastwest;newEdgeStyle={&quot;curved&quot;:0,&quot;rounded&quot;:0};" vertex="1" parent="uYPOjE27LP6-1Nn6hJa9-5">
          <mxGeometry x="45" y="205" width="10" height="35" as="geometry" />
        </mxCell>
        <mxCell id="uYPOjE27LP6-1Nn6hJa9-20" value="1: orderOneBook(&lt;br&gt;title: String, author: String, ISBN: long)" style="html=1;verticalAlign=bottom;endArrow=block;curved=0;rounded=0;entryX=0;entryY=0;entryDx=0;entryDy=5;" edge="1" parent="1" source="uYPOjE27LP6-1Nn6hJa9-6" target="uYPOjE27LP6-1Nn6hJa9-19">
          <mxGeometry relative="1" as="geometry">
            <mxPoint x="215" y="145" as="sourcePoint" />
          </mxGeometry>
        </mxCell>
        <mxCell id="uYPOjE27LP6-1Nn6hJa9-21" value="6: 고지한다." style="html=1;verticalAlign=bottom;endArrow=open;dashed=1;endSize=8;curved=0;rounded=0;exitX=0;exitY=1;exitDx=0;exitDy=-5;" edge="1" parent="1">
          <mxGeometry relative="1" as="geometry">
            <mxPoint x="48" y="425" as="targetPoint" />
            <mxPoint x="283" y="425" as="sourcePoint" />
          </mxGeometry>
        </mxCell>
        <mxCell id="uYPOjE27LP6-1Nn6hJa9-23" value="2: orderOneBook(&lt;br&gt;title: String, author: String, ISBN: long)" style="html=1;verticalAlign=bottom;endArrow=block;curved=0;rounded=0;" edge="1" parent="1">
          <mxGeometry relative="1" as="geometry">
            <mxPoint x="298.0238095238095" y="186" as="sourcePoint" />
            <mxPoint x="532" y="186" as="targetPoint" />
          </mxGeometry>
        </mxCell>
        <mxCell id="uYPOjE27LP6-1Nn6hJa9-24" value="" style="html=1;verticalAlign=bottom;endArrow=open;dashed=1;endSize=8;curved=0;rounded=0;exitX=0;exitY=1;exitDx=0;exitDy=-5;" edge="1" parent="1" source="uYPOjE27LP6-1Nn6hJa9-22" target="uYPOjE27LP6-1Nn6hJa9-19">
          <mxGeometry relative="1" as="geometry">
            <mxPoint x="465" y="257" as="targetPoint" />
          </mxGeometry>
        </mxCell>
        <mxCell id="uYPOjE27LP6-1Nn6hJa9-36" value="5. isOrdered: Boolean" style="edgeLabel;html=1;align=center;verticalAlign=middle;resizable=0;points=[];" connectable="0" vertex="1" parent="uYPOjE27LP6-1Nn6hJa9-24">
          <mxGeometry x="0.1579" y="-2" relative="1" as="geometry">
            <mxPoint x="14" y="-10" as="offset" />
          </mxGeometry>
        </mxCell>
        <mxCell id="uYPOjE27LP6-1Nn6hJa9-25" value="&lt;u&gt;o:Order&lt;/u&gt;" style="shape=umlLifeline;perimeter=lifelinePerimeter;whiteSpace=wrap;html=1;container=1;dropTarget=0;collapsible=0;recursiveResize=0;outlineConnect=0;portConstraint=eastwest;newEdgeStyle={&quot;curved&quot;:0,&quot;rounded&quot;:0};" vertex="1" parent="1">
          <mxGeometry x="820" y="200" width="100" height="280" as="geometry" />
        </mxCell>
        <mxCell id="uYPOjE27LP6-1Nn6hJa9-27" value="" style="endArrow=open;dashed=1;endFill=0;endSize=12;html=1;rounded=0;" edge="1" parent="1">
          <mxGeometry width="160" relative="1" as="geometry">
            <mxPoint x="548" y="220" as="sourcePoint" />
            <mxPoint x="820" y="220" as="targetPoint" />
          </mxGeometry>
        </mxCell>
        <mxCell id="uYPOjE27LP6-1Nn6hJa9-29" value="3: 객체생성(&lt;br&gt;title: String, author: String, ISBN: long)" style="edgeLabel;html=1;align=center;verticalAlign=middle;resizable=0;points=[];" connectable="0" vertex="1" parent="uYPOjE27LP6-1Nn6hJa9-27">
          <mxGeometry x="-0.0473" y="-1" relative="1" as="geometry">
            <mxPoint x="2" y="-19" as="offset" />
          </mxGeometry>
        </mxCell>
        <mxCell id="uYPOjE27LP6-1Nn6hJa9-31" value="4.1: save(o: Order)" style="html=1;verticalAlign=bottom;endArrow=block;curved=0;rounded=0;entryX=1;entryY=0;entryDx=0;entryDy=5;entryPerimeter=0;" edge="1" parent="1" source="uYPOjE27LP6-1Nn6hJa9-25" target="uYPOjE27LP6-1Nn6hJa9-30">
          <mxGeometry width="80" relative="1" as="geometry">
            <mxPoint x="640" y="290" as="sourcePoint" />
            <mxPoint x="720" y="290" as="targetPoint" />
          </mxGeometry>
        </mxCell>
        <mxCell id="uYPOjE27LP6-1Nn6hJa9-32" value="4.2: isSaved: Boolean" style="html=1;verticalAlign=bottom;endArrow=open;dashed=1;endSize=8;curved=0;rounded=0;exitX=1;exitY=1;exitDx=0;exitDy=-5;exitPerimeter=0;" edge="1" parent="1" source="uYPOjE27LP6-1Nn6hJa9-30" target="uYPOjE27LP6-1Nn6hJa9-25">
          <mxGeometry relative="1" as="geometry">
            <mxPoint x="740" y="290" as="sourcePoint" />
            <mxPoint x="640" y="290" as="targetPoint" />
          </mxGeometry>
        </mxCell>
        <mxCell id="uYPOjE27LP6-1Nn6hJa9-33" value="4.3: display()" style="html=1;verticalAlign=bottom;endArrow=open;curved=0;rounded=0;entryX=0;entryY=0.5;entryDx=0;entryDy=0;endFill=0;" edge="1" parent="1" target="uYPOjE27LP6-1Nn6hJa9-34">
          <mxGeometry width="80" relative="1" as="geometry">
            <mxPoint x="550" y="370" as="sourcePoint" />
            <mxPoint x="850" y="370" as="targetPoint" />
          </mxGeometry>
        </mxCell>
        <mxCell id="uYPOjE27LP6-1Nn6hJa9-34" value="" style="rounded=0;whiteSpace=wrap;html=1;" vertex="1" parent="1">
          <mxGeometry x="865" y="360" width="10" height="20" as="geometry" />
        </mxCell>
      </root>
    </mxGraphModel>
  </diagram>
</mxfile>
